PathFileType	4	(X/Y/Z)	./resultDataOpenSim/trcMotMarkerGrf/sub06/qtm-13-05.trc
DataRate	CameraRate	NumFrames	NumMarkers	Units	OrigDataRate	OrigDataStartFrame	OrigNumFrames
250.000000	250.000000	7	24	m	250.000000	62	493
Frame#	Time	L.Toe.Tip			R.Toe.Tip			L.Ankle.Lat			R.Ankle.Lat			L.Ankle.Med			R.Ankle.Med			L.Heel			R.Heel			L.Knee.Lat			R.Knee.Lat			L.Knee.Med			R.Knee.Med			L.Thigh.Upper			R.Thigh.Upper			L.ASIS			R.ASIS			V.Sacral			L.Acromium			R.Acromium			C7			L.Elbow			R.Elbow			L.Wrist.Lat			R.Wrist.Lat
		X1	Y1	Z1	X2	Y2	Z2	X3	Y3	Z3	X4	Y4	Z4	X5	Y5	Z5	X6	Y6	Z6	X7	Y7	Z7	X8	Y8	Z8	X9	Y9	Z9	X10	Y10	Z10	X11	Y11	Z11	X12	Y12	Z12	X13	Y13	Z13	X14	Y14	Z14	X15	Y15	Z15	X16	Y16	Z16	X17	Y17	Z17	X18	Y18	Z18	X19	Y19	Z19	X20	Y20	Z20	X21	Y21	Z21	X22	Y22	Z22	X23	Y23	Z23	X24	Y24	Z24

62	0.244	-1.2702178	0.088549018	-0.073321656	-0.75060464	0.037327585	0.1043465	-1.2815313	0.21687446	-0.091609979	-0.88357355	0.062699155	0.12842541	-1.2599024	0.21850353	-0.010874479	-0.86711912	0.077375637	0.040128733	-1.3311815	0.26883625	-0.038900204	-0.94158792	0.037230182	0.069684763	-0.94197637	0.37717027	-0.12617197	-0.8057704	0.44135339	0.14285741	-0.93972628	0.37248911	-0.0015940968	-0.84947414	0.42735477	0.023897126	-0.97605508	0.77190936	-0.13576188	-0.93608868	0.79556388	0.20679764	-0.89566537	0.82152829	-0.099824057	-0.85511208	0.84106618	0.13914567	-1.0582784	0.91769377	0.041986953	-0.91028655	1.3178425	-0.14728153	-0.90237813	1.2946749	0.21576055	-0.9830687	1.3493469	0.035903192	-0.93719395	0.99464103	-0.21269485	-1.0178198	0.9986694	0.27082348	-0.74283577	0.84055953	-0.19479407	-0.92718663	0.7796273	0.30848269
63	0.248	-1.2530606	0.088419827	-0.072198374	-0.75074021	0.037392964	0.10442808	-1.2667837	0.21640347	-0.090243638	-0.88336233	0.062811423	0.12848927	-1.2447636	0.21838042	-0.0096527886	-0.86725713	0.077488468	0.04017523	-1.3170449	0.26758474	-0.037426543	-0.94165471	0.037255416	0.069657344	-0.92897304	0.3795563	-0.12580902	-0.80435066	0.44119665	0.14321495	-0.92598335	0.37509793	-0.001070489	-0.84758822	0.42775007	0.023853336	-0.9694658	0.77418913	-0.13576523	-0.92934326	0.79694652	0.20797082	-0.88964913	0.82352957	-0.099865907	-0.85019501	0.84251378	0.13995837	-1.0520776	0.91960295	0.042151908	-0.90427534	1.3197881	-0.14709797	-0.89587536	1.296862	0.21587636	-0.97669771	1.3512837	0.036086091	-0.93280479	0.99688654	-0.21187716	-1.0096656	1.0000998	0.27138826	-0.74008173	0.84085804	-0.19521013	-0.91619934	0.78215689	0.30859971
64	0.252	-1.2355517	0.088135663	-0.071175832	-0.75086442	0.03745549	0.10449416	-1.2518254	0.21570374	-0.088971023	-0.88323683	0.062899976	0.12854619	-1.2294204	0.21804188	-0.0084573356	-0.86749342	0.077611918	0.040224822	-1.3028658	0.26599337	-0.035937225	-0.94172487	0.037282821	0.069637401	-0.91606329	0.38209333	-0.12544063	-0.80295203	0.44104416	0.14351367	-0.91267877	0.37780734	-0.0003282258	-0.84572082	0.42813754	0.023805614	-0.96283137	0.77650235	-0.13559514	-0.922261	0.79842937	0.20904736	-0.8836656	0.82557985	-0.099942225	-0.8456326	0.84399035	0.14069198	-1.0459135	0.92146843	0.042129826	-0.89824152	1.3217375	-0.14691902	-0.88936831	1.2990583	0.2159801	-0.97033868	1.3532037	0.036276026	-0.92843385	0.99918298	-0.21100085	-1.0016266	1.0015368	0.27182037	-0.73737169	0.84117467	-0.1956644	-0.90517363	0.78473616	0.30867471
65	0.256	-1.2176733	0.087731162	-0.070271083	-0.75098393	0.037514536	0.10454763	-1.2366675	0.21478593	-0.087751203	-0.88326935	0.062944596	0.12858855	-1.2139596	0.21748814	-0.007283154	-0.86781673	0.077745542	0.040281633	-1.2886351	0.26405202	-0.034429875	-0.94180444	0.037299204	0.069627318	-0.90323287	0.38477322	-0.12507018	-0.8015717	0.44090449	0.14378098	-0.89958897	0.38057621	0.00056769349	-0.84401255	0.42847583	0.023816197	-0.95611982	0.77883397	-0.13518897	-0.91524709	0.79992988	0.20972942	-0.87746805	0.82768828	-0.0999199	-0.84076322	0.84550276	0.1414502	-1.0398585	0.92328659	0.042065065	-0.89218808	1.3236845	-0.14674015	-0.88286505	1.3012792	0.21606582	-0.96398925	1.3551061	0.036474467	-0.92409797	1.001509	-0.21015967	-0.99368789	1.0030072	0.27229404	-0.73470601	0.84152102	-0.19616566	-0.89410881	0.78735541	0.3087071
66	0.26	-1.1995186	0.087219124	-0.069384802	-0.75110254	0.037570291	0.10459172	-1.2213875	0.21365288	-0.086511141	-0.88338924	0.062967164	0.12861875	-1.198426	0.21671666	-0.0061178315	-0.86815375	0.077888575	0.040340147	-1.2743821	0.26182885	-0.032911143	-0.9419016	0.037289537	0.069627669	-0.89045072	0.38758045	-0.12469673	-0.80019934	0.4407848	0.14404288	-0.88646948	0.38343196	0.0014344016	-0.84255513	0.42875873	0.023882752	-0.9493446	0.78115314	-0.13465936	-0.90853782	0.80134956	0.20992682	-0.87089105	0.82981676	-0.099840894	-0.83540343	0.84704685	0.14226531	-1.033894	0.92505214	0.042024175	-0.88611912	1.3256186	-0.14655828	-0.87635308	1.3035141	0.21612609	-0.95764841	1.3569848	0.036677977	-0.919817	1.0038401	-0.20945548	-0.98574523	1.0045203	0.27296094	-0.73208146	0.84190448	-0.19672242	-0.88300875	0.79000794	0.30869977
67	0.264	-1.1812704	0.086582644	-0.068340942	-0.7512213	0.037620563	0.10462766	-1.2060266	0.21231181	-0.085234257	-0.88351643	0.062991844	0.12864145	-1.1828325	0.2157267	-0.0049480479	-0.86843081	0.078038137	0.040391597	-1.2601394	0.25938707	-0.031386172	-0.94201784	0.037256893	0.069638183	-0.87769729	0.39050099	-0.12431578	-0.79883196	0.44068327	0.14430525	-0.87325878	0.38642398	0.0021505308	-0.84128311	0.429022	0.02396407	-0.9425612	0.78343676	-0.13420489	-0.90225667	0.80260409	0.20984901	-0.86411617	0.83193548	-0.099685105	-0.82975192	0.84860874	0.14311031	-1.0279814	0.92676369	0.042002531	-0.88003662	1.3275298	-0.14637649	-0.86981832	1.3057363	0.21615896	-0.95131601	1.3588258	0.036882871	-0.91559369	1.0061601	-0.20890617	-0.97773502	1.0060595	0.27381477	-0.72949201	0.84231562	-0.19733415	-0.87188722	0.79269593	0.30865553
68	0.268	-1.1629934	0.085813211	-0.06710118	-0.75133732	0.037662125	0.10465609	-1.1905765	0.21077442	-0.083952001	-0.88361618	0.063019505	0.12865184	-1.1672376	0.21453289	-0.0037548794	-0.86863197	0.078190175	0.040432642	-1.2458751	0.25668956	-0.02987397	-0.94214271	0.037231978	0.069655937	-0.86498916	0.39352323	-0.12392647	-0.7975304	0.44059546	0.14454849	-0.8600447	0.38955887	0.0027098623	-0.84000476	0.42930697	0.02404663	-0.93581446	0.78568604	-0.1339577	-0.89649418	0.80368713	0.2098977	-0.85752208	0.83404158	-0.099348783	-0.82401876	0.85016647	0.14396703	-1.0221018	0.92842965	0.041981731	-0.87393827	1.3294099	-0.14619675	-0.8632611	1.3079217	0.21616741	-0.94499261	1.3606172	0.037086744	-0.91141424	1.0084649	-0.20845983	-0.96967009	1.0075957	0.27474216	-0.72693183	0.8427357	-0.19799086	-0.86076184	0.79543627	0.30858139
